<?xml version="1.0" encoding="UTF-8"?>
<!DOCTYPE svg PUBLIC "-//W3C//DTD SVG 1.1//EN" "http://www.w3.org/Graphics/SVG/1.1/DTD/svg11.dtd">
<!-- Creator: CorelDRAW -->
<svg xmlns="http://www.w3.org/2000/svg" xml:space="preserve" width="296mm" height="210mm" version="1.1" style="shape-rendering:geometricPrecision; text-rendering:geometricPrecision; image-rendering:optimizeQuality; fill-rule:evenodd; clip-rule:evenodd"
viewBox="0 0 29600 21000"
 xmlns:xlink="http://www.w3.org/1999/xlink"
 xmlns:xodm="http://www.corel.com/coreldraw/odm/2003">
 <defs>
  <style type="text/css">
   <![CDATA[
    .str0 {stroke:#2B2A29;stroke-width:20;stroke-miterlimit:22.9256}
    .fil2 {fill:none}
    .fil0 {fill:#898989}
    .fil1 {fill:#4F4F4E}
    .fil3 {fill:#FEFEFE;fill-rule:nonzero}
   ]]>
  </style>
   <clipPath id="id0" style="clip-rule:nonzero">
    <path d="M6937.66 6740.38l0 6090.32 -1586.1 0 0 -2556.24 -461.97 0 0 2556.24 -1586.1 0 0 -6090.32 1586.1 0 0 2178.96 461.97 0 0 -2178.96 1586.1 0z"/>
   </clipPath>
    <clipPath id="id1">
     <path d="M6937.66 6740.38l0 6090.32 -1586.1 0 0 -2556.24 -461.97 0 0 2556.24 -1586.1 0 0 -6090.32 1586.1 0 0 2178.96 461.97 0 0 -2178.96 1586.1 0z"/>
    </clipPath>
    <clipPath id="id2">
     <path d="M6937.66 6740.38l0 6090.32 -1586.1 0 0 -2556.24 -461.97 0 0 2556.24 -1586.1 0 0 -6090.32 1586.1 0 0 2178.96 461.97 0 0 -2178.96 1586.1 0z"/>
    </clipPath>
   <clipPath id="id3" style="clip-rule:nonzero">
    <path d="M10310.06 6740.38l905.97 6090.32 -1618.18 0 -85.98 -1093.33 -571.04 0 -85.98 1093.33 -1638.72 0 803.32 -6090.32 2290.61 0zm-840.53 3919.06c-75.72,-690.39 -155.28,-1545.04 -239.97,-2565.23 -156.56,1170.33 -255.37,2024.98 -297.72,2565.23l537.69 0z"/>
   </clipPath>
    <clipPath id="id4">
     <path d="M10310.06 6740.38l905.97 6090.32 -1618.18 0 -85.98 -1093.33 -571.04 0 -85.98 1093.33 -1638.72 0 803.32 -6090.32 2290.61 0zm-840.53 3919.06c-75.72,-690.39 -155.28,-1545.04 -239.97,-2565.23 -156.56,1170.33 -255.37,2024.98 -297.72,2565.23l537.69 0z"/>
    </clipPath>
    <clipPath id="id5">
     <path d="M10310.06 6740.38l905.97 6090.32 -1618.18 0 -85.98 -1093.33 -571.04 0 -85.98 1093.33 -1638.72 0 803.32 -6090.32 2290.61 0zm-840.53 3919.06c-75.72,-690.39 -155.28,-1545.04 -239.97,-2565.23 -156.56,1170.33 -255.37,2024.98 -297.72,2565.23l537.69 0z"/>
    </clipPath>
   <clipPath id="id6" style="clip-rule:nonzero">
    <path d="M17307.64 6740.38l-705.79 6090.32 -1973.64 0c-177.09,-935.49 -337.5,-2001.88 -481.22,-3197.87 -65.45,514.59 -213.02,1580.97 -442.73,3197.87l-1962.09 0 -709.64 -6090.32 1539.9 0 166.83 2127.63 160.4 2055.78c60.32,-1063.82 206.61,-2458.72 438.88,-4183.41l1639.99 0c19.25,180.94 75.72,850.8 168.11,2012.14l178.37 2317.56c93.68,-1474.46 241.25,-2918.12 442.72,-4329.7l1539.91 0z"/>
   </clipPath>
    <clipPath id="id7">
     <path d="M17307.64 6740.38l-705.79 6090.32 -1973.64 0c-177.09,-935.49 -337.5,-2001.88 -481.22,-3197.87 -65.45,514.59 -213.02,1580.97 -442.73,3197.87l-1962.09 0 -709.64 -6090.32 1539.9 0 166.83 2127.63 160.4 2055.78c60.32,-1063.82 206.61,-2458.72 438.88,-4183.41l1639.99 0c19.25,180.94 75.72,850.8 168.11,2012.14l178.37 2317.56c93.68,-1474.46 241.25,-2918.12 442.72,-4329.7l1539.91 0z"/>
    </clipPath>
    <clipPath id="id8">
     <path d="M17307.64 6740.38l-705.79 6090.32 -1973.64 0c-177.09,-935.49 -337.5,-2001.88 -481.22,-3197.87 -65.45,514.59 -213.02,1580.97 -442.73,3197.87l-1962.09 0 -709.64 -6090.32 1539.9 0 166.83 2127.63 160.4 2055.78c60.32,-1063.82 206.61,-2458.72 438.88,-4183.41l1639.99 0c19.25,180.94 75.72,850.8 168.11,2012.14l178.37 2317.56c93.68,-1474.46 241.25,-2918.12 442.72,-4329.7l1539.91 0z"/>
    </clipPath>
   <clipPath id="id9" style="clip-rule:nonzero">
    <path d="M19205.57 6740.38l0 6090.32 -1586.1 0 0 -6090.32 1586.1 0z"/>
   </clipPath>
    <clipPath id="id10">
     <path d="M19205.57 6740.38l0 6090.32 -1586.1 0 0 -6090.32 1586.1 0z"/>
    </clipPath>
    <clipPath id="id11">
     <path d="M19205.57 6740.38l0 6090.32 -1586.1 0 0 -6090.32 1586.1 0z"/>
    </clipPath>
   <clipPath id="id12" style="clip-rule:nonzero">
    <path d="M23372.3 6740.38l0 6090.32 -1385.91 0 -823.85 -2769.26 0 2769.26 -1324.32 0 0 -6090.32 1324.32 0 885.44 2742.31 0 -2742.31 1324.32 0z"/>
   </clipPath>
    <clipPath id="id13">
     <path d="M23372.3 6740.38l0 6090.32 -1385.91 0 -823.85 -2769.26 0 2769.26 -1324.32 0 0 -6090.32 1324.32 0 885.44 2742.31 0 -2742.31 1324.32 0z"/>
    </clipPath>
    <clipPath id="id14">
     <path d="M23372.3 6740.38l0 6090.32 -1385.91 0 -823.85 -2769.26 0 2769.26 -1324.32 0 0 -6090.32 1324.32 0 885.44 2742.31 0 -2742.31 1324.32 0z"/>
    </clipPath>
   <clipPath id="id15" style="clip-rule:nonzero">
    <path d="M24007.51 6740.38l2679.43 0 0 1216.52 -1093.33 0 0 1162.63 970.14 0 0 1154.93 -970.14 0 0 2556.24 -1586.1 0 0 -6090.32z"/>
   </clipPath>
    <clipPath id="id16">
     <path d="M24007.51 6740.38l2679.43 0 0 1216.52 -1093.33 0 0 1162.63 970.14 0 0 1154.93 -970.14 0 0 2556.24 -1586.1 0 0 -6090.32z"/>
    </clipPath>
    <clipPath id="id17">
     <path d="M24007.51 6740.38l2679.43 0 0 1216.52 -1093.33 0 0 1162.63 970.14 0 0 1154.93 -970.14 0 0 2556.24 -1586.1 0 0 -6090.32z"/>
    </clipPath>
 </defs>
 <g id="Layer_x0020_1">
  <metadata id="CorelCorpID_0Corel-Layer"/>
  <rect class="fil0 str0" x="-8.2" y="7.13" width="29600" height="21000"/>
  <rect class="fil1 str0" x="-8.2" y="7.13" width="29600" height="21000"/>
  <rect class="fil2 str0" x="-8.2" y="7.13" width="29600" height="21000"/>
  <path class="fil3" d="M6937.66 6740.38l0 6090.32 -1586.1 0 0 -2556.24 -461.97 0 0 2556.24 -1586.1 0 0 -6090.32 1586.1 0 0 2178.96 461.97 0 0 -2178.96 1586.1 0zm3372.4 0l905.97 6090.32 -1618.18 0 -85.98 -1093.33 -571.04 0 -85.98 1093.33 -1638.72 0 803.32 -6090.32 2290.61 0zm-840.53 3919.06c-75.72,-690.39 -155.28,-1545.04 -239.97,-2565.23 -156.56,1170.33 -255.37,2024.98 -297.72,2565.23l537.69 0zm7838.11 -3919.06l-705.79 6090.32 -1973.64 0c-177.09,-935.49 -337.5,-2001.88 -481.22,-3197.87 -65.45,514.59 -213.02,1580.97 -442.73,3197.87l-1962.09 0 -709.64 -6090.32 1539.9 0 166.83 2127.63 160.4 2055.78c60.32,-1063.82 206.61,-2458.72 438.88,-4183.41l1639.99 0c19.25,180.94 75.72,850.8 168.11,2012.14l178.37 2317.56c93.68,-1474.46 241.25,-2918.12 442.72,-4329.7l1539.91 0zm1897.93 0l0 6090.32 -1586.1 0 0 -6090.32 1586.1 0zm4166.73 0l0 6090.32 -1385.91 0 -823.85 -2769.26 0 2769.26 -1324.32 0 0 -6090.32 1324.32 0 885.44 2742.31 0 -2742.31 1324.32 0zm635.21 0l2679.43 0 0 1216.52 -1093.33 0 0 1162.63 970.14 0 0 1154.93 -970.14 0 0 2556.24 -1586.1 0 0 -6090.32z"/>
  <g style="clip-path:url(#id0)">
   <g id="_2210266439104">
   </g>
   <g style="clip-path:url(#id1)">
    <image id="pexels-pixabay-267961.jpg" x="3085.83" y="1691.8" width="24050.01" height="16033.34" xlink:href="bg_Images\bg_ImgID1.png"/>
   </g>
   <g style="clip-path:url(#id2)">
   </g>
  </g>
  <g style="clip-path:url(#id3)">
   <g id="_2210266439104">
   </g>
   <g style="clip-path:url(#id4)">
    <image id="pexels-pixabay-267961.jpg_0" x="3085.83" y="1691.8" width="24050.01" height="16033.34" xlink:href="bg_Images\bg_ImgID2.png"/>
   </g>
   <g style="clip-path:url(#id5)">
   </g>
  </g>
  <g style="clip-path:url(#id6)">
   <g id="_2210266439104">
   </g>
   <g style="clip-path:url(#id7)">
    <image id="pexels-pixabay-267961.jpg_1" x="3085.83" y="1691.8" width="24050.01" height="16033.34" xlink:href="bg_Images\bg_ImgID3.png"/>
   </g>
   <g style="clip-path:url(#id8)">
   </g>
  </g>
  <g style="clip-path:url(#id9)">
   <g id="_2210266439104">
   </g>
   <g style="clip-path:url(#id10)">
    <image id="pexels-pixabay-267961.jpg_2" x="3085.83" y="1691.8" width="24050.01" height="16033.34" xlink:href="bg_Images\bg_ImgID4.png"/>
   </g>
   <g style="clip-path:url(#id11)">
   </g>
  </g>
  <g style="clip-path:url(#id12)">
   <g id="_2210266439104">
   </g>
   <g style="clip-path:url(#id13)">
    <image id="pexels-pixabay-267961.jpg_3" x="3085.83" y="1691.8" width="24050.01" height="16033.34" xlink:href="bg_Images\bg_ImgID5.png"/>
   </g>
   <g style="clip-path:url(#id14)">
   </g>
  </g>
  <g style="clip-path:url(#id15)">
   <g id="_2210266439104">
   </g>
   <g style="clip-path:url(#id16)">
    <image id="pexels-pixabay-267961.jpg_4" x="3085.83" y="1691.8" width="24050.01" height="16033.34" xlink:href="bg_Images\bg_ImgID6.png"/>
   </g>
   <g style="clip-path:url(#id17)">
   </g>
  </g>
 </g>
</svg>
