<?xml version="1.0" encoding="UTF-8"?>
<!DOCTYPE svg PUBLIC "-//W3C//DTD SVG 1.1//EN" "http://www.w3.org/Graphics/SVG/1.1/DTD/svg11.dtd">
<!-- Creator: CorelDRAW -->
<svg xmlns="http://www.w3.org/2000/svg" xml:space="preserve" width="80mm" height="80mm" version="1.1" style="shape-rendering:geometricPrecision; text-rendering:geometricPrecision; image-rendering:optimizeQuality; fill-rule:evenodd; clip-rule:evenodd"
viewBox="0 0 8000 8000"
 xmlns:xlink="http://www.w3.org/1999/xlink"
 xmlns:xodm="http://www.corel.com/coreldraw/odm/2003">
 <defs>
    <clipPath id="id0">
     <path d="M55.69 1934.13l8555.9 441.69 0 4488.82 -8555.9 -441.69 0 -4488.82z"/>
    </clipPath>
   <clipPath id="id1">
    <path d="M756.31 2717.43c0,0 -29.17,246.63 26.52,328.84 55.69,82.22 389.84,477.36 411.06,495.93 21.22,18.57 48.78,7.87 48.78,7.87l4.27 26.45 1.7 24.73 14.5 22.18 301.94 356.59 155.74 194.74 41.56 0 8.67 27.14 -0.45 18.29 11.43 11.44 10.07 17.85 257.41 308.56 -746.37 144.63 -406.32 84.06c0,0 -301.24,56.02 -301.24,98.07 0,42.04 11.64,229.13 24.08,296.25 12.43,67.13 465.64,649.39 465.64,649.39 0,0 61.46,83.88 154.28,93.16 92.82,9.28 204.19,9.28 204.19,9.28l1345.85 -278.45c0,0 106.75,-32.47 106.75,-64.97 0,-32.49 55.69,46.4 55.69,46.4 0,0 1401.54,-236.67 1480.43,-283.08 78.9,-46.41 129.94,-60.34 129.94,-60.34l92.82 37.14c0,0 1416.94,-204.78 1451.94,-245.62 35,-40.84 107.8,-20.06 107.8,-20.06l96.47 19.73 545.86 -87.69c0,0 827.37,-119.79 851.68,-159.08 24.32,-39.29 54.26,-29.94 58,-125.34 3.73,-95.41 -7.49,-213.27 -7.49,-213.27 0,0 -248.81,-239.47 -325.51,-306.8 -76.7,-67.34 -430.38,-338.34 -502.18,-375.58 -71.8,-37.24 -1026.43,119.65 -1026.43,119.65 0,0 -404.19,71.81 -417.49,109.04 -13.3,37.22 -53.19,7.96 -53.19,7.96l-71.79 -10.63 -1108.86 162.21c0,0 -305.81,39.89 -324.42,71.8 -18.61,31.91 -31.91,47.87 -31.91,47.87l-23.94 -55.85 -542.46 -598.31 -83.98 -41.73 -30.11 -56.46 -519.43 -545.77c0,0 -474.49,-554.12 -571.64,-545.6 -97.14,8.51 -1294.76,171.71 -1294.76,171.71 0,0 -59.35,24.73 -75.1,65.67z"/>
   </clipPath>
 </defs>
 <g id="Layer_x0020_1">
  <metadata id="CorelCorpID_0Corel-Layer"/>
  <g id="_2062213446608">
   <g style="clip-path:url(#id0)">
    <image x="55.69" y="1934.13" width="8555.9" height="4930.51" xlink:href="ggs_Images\ggs_ImgID1.png"/>
   </g>
  </g>
  <g style="clip-path:url(#id1)">
   <image x="-743.39" y="914.43" width="9327.12" height="6995.34" xlink:href="ggs_Images\ggs_ImgID2.png"/>
  </g>
 </g>
</svg>
