<?xml version="1.0" encoding="UTF-8"?>
<!DOCTYPE svg PUBLIC "-//W3C//DTD SVG 1.1//EN" "http://www.w3.org/Graphics/SVG/1.1/DTD/svg11.dtd">
<!-- Creator: CorelDRAW -->
<svg xmlns="http://www.w3.org/2000/svg" xml:space="preserve" width="80mm" height="80mm" version="1.1" style="shape-rendering:geometricPrecision; text-rendering:geometricPrecision; image-rendering:optimizeQuality; fill-rule:evenodd; clip-rule:evenodd"
viewBox="0 0 8000 8000"
 xmlns:xlink="http://www.w3.org/1999/xlink"
 xmlns:xodm="http://www.corel.com/coreldraw/odm/2003">
 <defs>
   <clipPath id="id0">
    <path d="M5529.03 650.05c0,0 125.82,203.23 129.04,287.1 3.22,83.88 3.22,1087.13 3.22,1087.13l11.15 9.37 0.38 15.33 -0.38 14.94 -0.38 8.81 8 703.85 -22.96 29.24 5.23 1455.32c0,0 902.68,-10.33 950.92,10.34 48.24,20.67 50.42,42.71 50.42,51.24 0,8.54 2.29,932.99 2.29,932.99 0,0 -22.58,69.84 -43.12,90.37 -20.55,20.54 -78.04,57.51 -127.34,57.51 -49.29,0 -830.65,2.44 -830.65,2.44l-11.01 1284.75c0,0 -43.32,218.26 -87.97,268.86 -44.65,50.6 -217.72,167.68 -273.92,177.9 -56.2,10.21 -97.07,20.43 -97.07,20.43l-2392.47 5.78c0,0 -278.13,-76.8 -323.79,-161.89 -45.66,-85.09 -89.24,-132.84 -97.55,-193.03 -8.29,-60.18 -18.68,-116.22 -18.68,-116.22l-732.78 -14.13c0,0 -112.24,-30.96 -119.99,-154.82 -7.74,-123.85 -7.74,-917.33 -7.74,-917.33 0,0 -11.61,-58.07 69.67,-65.8 81.28,-7.74 778.48,2.19 778.48,2.19l0 -1409.21 -709.57 -5.57c0,0 -142.13,-33.17 -142.13,-184.77 0,-151.61 -1.87,-890 -1.87,-890 0,0 14.39,-52.7 81.44,-52.7 67.05,0 785.55,-4.78 785.55,-4.78l-2.39 -33.53 -16.22 -17.8 -1.74 -116.14 -5.24 -313.09 21.1 -18.22 -17.51 -28.05 -3.31 -114.75 4.28 -462.66 -6.01 -36.02 6.01 -219.09 -15.01 -30.02 18.01 -204.08 12.84 -15.57 5.05 -438.96c0,0 67.59,-364.61 292.56,-410.93 224.96,-46.31 99.25,-39.7 234.89,-46.31 135.64,-6.61 2147.09,-3.3 2147.09,-3.3 0,0 238.2,-3.31 314.29,36.39 76.09,39.7 176.89,126.49 176.89,126.49z"/>
   </clipPath>
 </defs>
 <g id="Layer_x0020_1">
  <metadata id="CorelCorpID_0Corel-Layer"/>
  <g style="clip-path:url(#id0)">
   <image id="Untitled-2.cdr" x="269.21" y="13.17" width="7625.66" height="7625.65" xlink:href="Untitled-1_Images\Untitled-1_ImgID1.png"/>
  </g>
 </g>
</svg>
